<svg width="455" height="360" viewBox="0 0 455 360" fill="none" xmlns="http://www.w3.org/2000/svg">
<path d="M171.911 105.69L199.624 57.6896H255.05L282.763 105.69L255.05 153.691H199.624L171.911 105.69Z" fill="#FFB800"/>
<path d="M86 55.8065L113.713 7.80598H169.139L196.852 55.8065L169.139 103.807H113.713L86 55.8065Z" fill="#FFB800"/>
<path d="M86 155.574L113.713 107.573H169.139L196.852 155.574L169.139 203.574H113.713L86 155.574Z" fill="#FFB800"/>
<path d="M257.911 254.31L285.624 206.309H341.05L368.763 254.31L341.05 302.31H285.624L257.911 254.31Z" fill="#FFB800"/>
<path d="M172 204.426L199.713 156.426H255.139L282.852 204.426L255.139 252.427H199.713L172 204.426Z" fill="#FFB800"/>
<path d="M172 304.193L199.713 256.193H255.139L282.852 304.193L255.139 352.194H199.713L172 304.193Z" fill="#FFB800"/>
<path d="M85.9106 254.31L113.624 206.309H169.05L196.763 254.31L169.05 302.31H113.624L85.9106 254.31Z" fill="#FFB800"/>
<path d="M0 204.426L27.7131 156.426H83.1394L110.852 204.426L83.1394 252.427H27.7131L0 204.426Z" fill="#FFB800"/>
<path d="M0 304.193L27.7131 256.193H83.1394L110.852 304.193L83.1394 352.194H27.7131L0 304.193Z" fill="#FFB800"/>
<path d="M343.911 105.31L371.624 57.3093H427.05L454.763 105.31L427.05 153.31H371.624L343.911 105.31Z" fill="#FFB800"/>
<path d="M258 55.4262L285.713 7.4257H341.139L368.852 55.4262L341.139 103.427H285.713L258 55.4262Z" fill="#FFB800"/>
<path d="M258 155.193L285.713 107.193H341.139L368.852 155.193L341.139 203.194H285.713L258 155.193Z" fill="#FFB800"/>
</svg>
